<?xml version="1.0" encoding="UTF-8" standalone="no"?>
<!-- Created with Inkscape (http://www.inkscape.org/) -->

<svg
   width="180"
   height="48"
   viewBox="0 0 47.624956 12.7"
   version="1.1"
   id="svg1"
   inkscape:version="1.2.2 (b0a8486541, 2022-12-01)"
   sodipodi:docname="Builded-full.svg"
   xml:space="preserve"
   xmlns:inkscape="http://www.inkscape.org/namespaces/inkscape"
   xmlns:sodipodi="http://sodipodi.sourceforge.net/DTD/sodipodi-0.dtd"
   xmlns="http://www.w3.org/2000/svg"
   xmlns:svg="http://www.w3.org/2000/svg"
   xmlns:rdf="http://www.w3.org/1999/02/22-rdf-syntax-ns#"
   xmlns:cc="http://creativecommons.org/ns#"><sodipodi:namedview
     id="namedview1"
     pagecolor="#ffffff"
     bordercolor="#000000"
     borderopacity="0.25"
     inkscape:showpageshadow="2"
     inkscape:pageopacity="0"
     inkscape:pagecheckerboard="false"
     inkscape:deskcolor="#d1d1d1"
     inkscape:document-units="mm"
     inkscape:zoom="2.3358246"
     inkscape:cx="34.677261"
     inkscape:cy="20.121374"
     inkscape:window-width="1920"
     inkscape:window-height="976"
     inkscape:window-x="0"
     inkscape:window-y="36"
     inkscape:window-maximized="1"
     inkscape:current-layer="layer1"
     showgrid="false" /><defs
     id="defs1" /><g
     inkscape:label="Layer 1"
     inkscape:groupmode="layer"
     id="layer1"><path
       style="font-size:14.1111px;font-family:atarismall;-inkscape-font-specification:atarismall;fill:#ffbf00;fill-opacity:1;stroke:#ffbf00;stroke-width:0.630179;stroke-opacity:1"
       d="m 4.5090201,11.378081 c 0,0 -0.2173996,-3.9596288 0.9454421,-5.1245466 C 6.6173038,5.0886167 8.4090753,6.6308901 8.4255843,3.3281875 8.4339893,1.6465829 7.3499741,1.5161815 5.9301415,1.4086515 4.5103088,1.3011215 2.7401964,1.3236235 2.7401964,1.3236235 V 11.376134 Z"
       id="path899"
       sodipodi:nodetypes="csssccc" /><circle
       style="font-size:14.1111px;font-family:atarismall;-inkscape-font-specification:atarismall;fill:#ffbf00;fill-opacity:1;stroke:#ffbf00;stroke-width:0.630179;stroke-opacity:1"
       id="path953"
       cx="8.1712666"
       cy="9.1229191"
       r="2.2732656" /><path
       d="m 14.213096,11.578982 q -1.409734,0 -1.409734,-1.8727542 V 6.8371512 h 0.760678 v 2.8690766 q 0,1.2112962 0.905371,1.2112962 0.529167,0 0.818555,-0.380339 0.289388,-0.384473 0.289388,-1.0831383 V 6.8371512 h 0.764812 v 4.6219418 h -0.690398 l -0.07441,-0.694531 q -0.413411,0.81442 -1.364258,0.81442 z"
       id="path292"
       style="font-size:8.46667px;font-family:hack;-inkscape-font-specification:hack;fill:#ffbf00;stroke:#ffbf00;stroke-width:0.264583" /><path
       d="m 19.256718,5.9896573 q -0.124024,0 -0.124024,-0.1240235 V 5.1504317 q 0,-0.1240235 0.124024,-0.1240235 h 0.595312 q 0.124024,0 0.124024,0.1240235 v 0.7152021 q 0,0.1240235 -0.124024,0.1240235 z m 1.389063,5.5025087 q -0.682129,0 -1.058334,-0.438216 -0.37207,-0.442351 -0.37207,-1.2402352 V 7.4241957 H 18.202518 V 6.8288829 h 1.773536 v 2.9848319 q 0,0.5043622 0.190169,0.7689452 0.19017,0.264584 0.553972,0.264584 h 0.888835 v 0.644922 z"
       id="path294"
       style="font-size:8.46667px;font-family:hack;-inkscape-font-specification:hack;fill:#ffbf00;stroke:#ffbf00;stroke-width:0.264583" /><path
       d="m 25.58605,11.492166 q -0.682129,0 -1.058334,-0.438216 -0.37207,-0.442351 -0.37207,-1.2402352 V 5.621721 H 22.936081 V 5.0264082 h 1.980242 v 4.7873066 q 0,0.5043622 0.190169,0.7689452 0.19017,0.264584 0.553972,0.264584 h 0.888835 v 0.644922 z"
       id="path296"
       style="font-size:8.46667px;font-family:hack;-inkscape-font-specification:hack;fill:#ffbf00;stroke:#ffbf00;stroke-width:0.264583" /><path
       d="m 29.579606,11.578982 q -0.504362,0 -0.847494,-0.214974 -0.343131,-0.214974 -0.549837,-0.574642 -0.202572,-0.359668 -0.293522,-0.7937501 -0.09095,-0.4382163 -0.09095,-0.8805667 0,-1.1079432 0.483692,-1.7528653 0.487825,-0.6449221 1.314649,-0.6449221 0.405143,0 0.727604,0.1736329 0.322461,0.1694987 0.51263,0.5291668 V 5.0264082 h 0.760678 v 6.4326848 h -0.686263 l -0.07442,-0.58291 q -0.409277,0.702799 -1.256771,0.702799 z m 0.136426,-0.644922 q 0.359668,0 0.578776,-0.169498 0.223242,-0.169499 0.338998,-0.438217 0.119889,-0.272851 0.16123,-0.5829101 0.04134,-0.3141929 0.04134,-0.5994469 0,-0.2811199 -0.04134,-0.5911786 Q 30.753695,8.2427507 30.633806,7.9740331 30.51805,7.7011814 30.294808,7.5316827 30.0757,7.3621839 29.716032,7.3621839 q -0.363802,0 -0.587045,0.1694988 -0.219108,0.1694987 -0.334863,0.4423504 -0.111621,0.2687176 -0.152962,0.5787763 -0.04134,0.3100587 -0.04134,0.5911786 0,0.2811199 0.04134,0.5953127 0.04134,0.3100583 0.152962,0.5829103 0.115755,0.268718 0.334863,0.442351 0.223243,0.169498 0.587045,0.169498 z"
       id="path298"
       style="font-size:8.46667px;font-family:hack;-inkscape-font-specification:hack;fill:#ffbf00;stroke:#ffbf00;stroke-width:0.264583" /><path
       d="m 35.189602,11.578982 q -1.070736,0 -1.682585,-0.640788 -0.607716,-0.644922 -0.607716,-1.7569989 0,-0.6903975 0.239779,-1.2485031 0.243913,-0.5581057 0.719336,-0.8847009 0.479558,-0.3307293 1.182358,-0.3307293 0.926042,0 1.434538,0.5953127 0.51263,0.5911786 0.51263,1.6412442 v 0.3720704 h -3.29489 v 0.024805 q 0,0.7234702 0.380338,1.1534182 0.380339,0.429948 1.12448,0.429948 0.429948,0 0.830957,-0.136426 0.405144,-0.136425 0.781348,-0.330729 v 0.756543 q -0.392741,0.161231 -0.797884,0.256316 -0.401009,0.09922 -0.822689,0.09922 z m 1.037663,-2.8484056 q 0,-0.3844728 -0.115755,-0.6945315 Q 35.995755,7.7259861 35.739439,7.544085 35.487258,7.3621839 35.069712,7.3621839 q -0.421679,0 -0.706933,0.1860352 -0.28112,0.1819012 -0.442351,0.4919599 -0.157096,0.3100587 -0.198437,0.6903974 z"
       id="path300"
       style="font-size:8.46667px;font-family:hack;-inkscape-font-specification:hack;fill:#ffbf00;stroke:#ffbf00;stroke-width:0.264583" /><path
       d="m 39.774338,11.578982 q -0.504362,0 -0.847494,-0.214974 -0.343132,-0.214974 -0.549837,-0.574642 -0.202572,-0.359668 -0.293523,-0.7937501 -0.09095,-0.4382163 -0.09095,-0.8805667 0,-1.1079432 0.483691,-1.7528653 0.487826,-0.6449221 1.314649,-0.6449221 0.405144,0 0.727605,0.1736329 0.322461,0.1694987 0.51263,0.5291668 V 5.0264082 h 0.760678 v 6.4326848 h -0.686264 l -0.07441,-0.58291 q -0.409277,0.702799 -1.256771,0.702799 z m 0.136426,-0.644922 q 0.359668,0 0.578776,-0.169498 0.223242,-0.169499 0.338997,-0.438217 0.11989,-0.272851 0.161231,-0.5829101 0.04134,-0.3141929 0.04134,-0.5994469 0,-0.2811199 -0.04134,-0.5911786 Q 40.948427,8.2427507 40.828537,7.9740331 40.712782,7.7011814 40.48954,7.5316827 40.270432,7.3621839 39.910764,7.3621839 q -0.363803,0 -0.587045,0.1694988 -0.219108,0.1694987 -0.334863,0.4423504 -0.111621,0.2687176 -0.152963,0.5787763 -0.04134,0.3100587 -0.04134,0.5911786 0,0.2811199 0.04134,0.5953127 0.04134,0.3100583 0.152963,0.5829103 0.115755,0.268718 0.334863,0.442351 0.223242,0.169498 0.587045,0.169498 z"
       id="path302"
       style="font-size:8.46667px;font-family:hack;-inkscape-font-specification:hack;fill:#ffbf00;stroke:#ffbf00;stroke-width:0.264583" /><path
       d="m 45.115615,11.570714 q -0.28112,0 -0.475423,-0.194303 -0.194304,-0.194304 -0.194304,-0.504362 0,-0.310059 0.194304,-0.504363 0.194303,-0.194303 0.475423,-0.194303 0.28112,0 0.475423,0.194303 0.194304,0.194304 0.194304,0.504363 0,0.310058 -0.194304,0.504362 -0.194303,0.194303 -0.475423,0.194303 z"
       id="path304"
       style="font-size:8.46667px;font-family:hack;-inkscape-font-specification:hack;fill:#ffbf00;stroke:#ffbf00;stroke-width:0.264583" /></g><metadata
     id="metadata3595"><rdf:RDF><cc:Work
         rdf:about=""><cc:license
           rdf:resource="http://creativecommons.org/licenses/by-nc/4.0/" /></cc:Work><cc:License
         rdf:about="http://creativecommons.org/licenses/by-nc/4.0/"><cc:permits
           rdf:resource="http://creativecommons.org/ns#Reproduction" /><cc:permits
           rdf:resource="http://creativecommons.org/ns#Distribution" /><cc:requires
           rdf:resource="http://creativecommons.org/ns#Notice" /><cc:requires
           rdf:resource="http://creativecommons.org/ns#Attribution" /><cc:prohibits
           rdf:resource="http://creativecommons.org/ns#CommercialUse" /><cc:permits
           rdf:resource="http://creativecommons.org/ns#DerivativeWorks" /></cc:License></rdf:RDF></metadata></svg>
